<svg width="445" height="161" viewBox="0 0 445 161" fill="none" xmlns="http://www.w3.org/2000/svg">
<g clip-path="url(#clip0_15_7)">
<path d="M309.872 11.2533C307.955 11.2533 306.412 12.7755 306.412 14.662V14.9198C306.412 16.8104 307.955 18.3285 309.872 18.3285H436.737C438.654 18.3285 440.201 16.8104 440.201 14.9198V14.662C440.201 12.7755 438.654 11.2533 436.737 11.2533H309.872ZM24.9431 11.376C23.026 11.376 21.4832 12.8983 21.4832 14.7848V14.8011C21.4832 16.6876 23.026 18.2099 24.9431 18.2099H187.502C189.419 18.2099 190.962 16.6876 190.962 14.8011V14.7848C190.962 12.8983 189.419 11.376 187.502 11.376H24.9431ZM22.7183 135.735C20.8012 135.735 19.2583 137.024 19.2583 138.624C19.2583 140.224 20.8012 141.517 22.7183 141.517H436.77C438.688 141.517 440.23 140.224 440.23 138.624C440.23 137.024 438.688 135.735 436.77 135.735H22.7183Z" fill="url(#paint0_linear_15_7)" stroke="black" stroke-width="2" stroke-linejoin="round"/>
<path fill-rule="evenodd" clip-rule="evenodd" d="M124.37 12.0758C119.75 12.309 115.18 16.8063 120.212 24.2334L101.394 42.2755L108.364 50.5825L127.057 31.6892C139.362 38.5885 144.115 19.5807 130.733 19.9122C131.59 14.3019 127.959 11.8957 124.37 12.0758ZM18.2852 13.2789C14.9667 13.4548 11.9143 15.9019 12.7044 21.1152C-0.67785 20.7838 4.06292 39.7875 16.3681 32.8882L35.0651 51.7856L42.0307 43.4786L23.2131 25.4365C28.5278 17.596 23.1341 13.017 18.2852 13.2789ZM34.5702 108.06L15.8899 126.941C3.58468 120.042 -1.16856 139.062 12.2096 138.73C10.2633 151.559 31.6841 147.594 22.7349 134.397L41.5358 116.351L34.5702 108.06ZM108.364 109.018L101.394 117.325L120.212 135.371C111.263 148.568 132.683 152.517 130.733 139.692C144.115 140.019 139.362 120.999 127.057 127.899L108.364 109.018Z" fill="white" stroke="black" stroke-width="2"/>
<path fill-rule="evenodd" clip-rule="evenodd" d="M233.071 5.40975H238.257C238.278 6.16679 238.278 7.08342 238.257 7.79954C238.394 18.6641 232.327 25.2646 218.217 24.9741V20.039C227.162 19.8508 233.042 17.2973 233.071 7.79954C233.092 7.04659 233.113 6.25273 233.071 5.40975Z" fill="#000D82" stroke="black" stroke-width="2"/>
<path fill-rule="evenodd" clip-rule="evenodd" d="M239.555 2.85628V20.6406C239.571 23.0385 241.879 25.1255 244.129 25.146H259.054V20.4278H246.217C245.364 20.4359 245.115 19.9122 245.164 18.5863V11.7893H259.487V6.32638H257.511C257.187 6.9402 256.542 7.36168 255.794 7.36168C255.045 7.36168 254.405 6.9402 254.08 6.32638H245.164V2.85628H239.555Z" fill="#000D82" stroke="black" stroke-width="2"/>
<path d="M259.719 9.55505V15.3331H280.171V9.55505H259.719Z" fill="#000D82" stroke="black" stroke-width="2"/>
<path d="M255.794 2.05013C253.91 2.05013 252.379 3.58058 252.379 5.45886C252.379 7.33713 253.91 8.85121 255.794 8.85121C257.677 8.85121 259.208 7.33713 259.208 5.45886C259.208 3.58058 257.677 2.05013 255.794 2.05013ZM255.794 3.51102C256.871 3.51102 257.74 4.38673 257.74 5.45886C257.74 6.53099 256.871 7.4067 255.794 7.4067C254.721 7.4067 253.847 6.53099 253.847 5.45886C253.847 4.38673 254.721 3.51102 255.794 3.51102Z" fill="#000D82" stroke="black" stroke-width="2"/>
<path fill-rule="evenodd" clip-rule="evenodd" d="M196.189 2.6885V12.7264H201.37V7.96322H210.615C210.657 19.5111 203.092 20.2109 197.137 20.2109V25.3137C201.054 25.3137 215.971 25.682 215.884 7.96322C215.876 6.18316 215.884 4.47266 215.884 2.6885H196.189Z" fill="#000D82" stroke="black" stroke-width="2"/>
<path fill-rule="evenodd" clip-rule="evenodd" d="M217.177 2.6885V7.62358H229.27C229.27 5.84351 229.27 4.61179 229.27 2.6885H217.177Z" fill="#000D82" stroke="black" stroke-width="2"/>
<path fill-rule="evenodd" clip-rule="evenodd" d="M281.885 4.26805H297.583V9.08037C297.641 11.5315 296.955 13.3812 296.119 15.153C297.525 17.7352 299.213 19.4498 300.943 20.2682V25.4406C298.361 24.4217 295.753 23.3659 293.674 19.0651C289.994 23.8324 285.34 25.4897 280.358 25.1378V20.2068C281.223 20.1781 281.153 20.2191 282.3 20.2068C285.008 20.2068 292.622 14.6047 292.148 9.08037H281.885V4.26805Z" fill="#000D82" stroke="black" stroke-width="2"/>
<path fill-rule="evenodd" clip-rule="evenodd" d="M142.115 135.203C144.539 133.386 173.308 118.63 192.908 135.203C206.352 146.575 216.919 141.84 216.919 141.84L231.778 141.497C222.051 147.553 210.478 156.106 187.032 139.115C178.444 132.895 166.983 130.681 155.244 135.203C154.216 135.203 142.115 135.203 142.115 135.203Z" fill="#C04D00" stroke="black" stroke-width="2"/>
<path d="M152.482 130.78C152.482 131.01 152.482 131.01 152.482 130.78Z" stroke="black" stroke-width="2"/>
<path d="M152.653 130.612C152.432 130.775 152.778 129.994 152.482 131.463" stroke="black" stroke-width="2"/>
<path d="M152.482 135.203L152.827 130.951" stroke="black" stroke-width="2"/>
<path d="M158.529 128.398L159.045 134.524" stroke="black" stroke-width="2"/>
<path d="M165.266 133.333L165.611 127.719" stroke="black" stroke-width="2"/>
<path d="M171.312 127.551L170.792 132.993" stroke="black" stroke-width="2"/>
<path d="M175.804 134.185C175.804 133.955 175.804 133.955 175.804 134.185Z" stroke="black" stroke-width="2"/>
<path d="M179.604 128.23L175.974 133.673" stroke="black" stroke-width="2"/>
<path d="M180.985 135.203L185.822 131.291" stroke="black" stroke-width="2"/>
<path d="M191.352 134.352L186.167 137.757" stroke="black" stroke-width="2"/>
<path d="M193.078 142.859L198.609 138.608" stroke="black" stroke-width="2"/>
<path d="M208.974 142.348C208.914 142.348 208.855 142.348 208.974 142.348Z" stroke="black" stroke-width="2"/>
<path d="M204.306 147.283L208.452 142.688" stroke="black" stroke-width="2"/>
<path d="M213.118 142.348V149.325" stroke="black" stroke-width="2"/>
<path d="M220.202 147.111C219.971 147.111 219.971 147.111 220.202 147.111Z" stroke="black" stroke-width="2"/>
<path d="M219.855 141.497L219.51 146.943" stroke="black" stroke-width="2"/>
<path fill-rule="evenodd" clip-rule="evenodd" d="M423.388 24.8636L426.507 28.4401C374.363 40.4136 370.895 113.261 426.154 127.784L423.742 132.032L437.386 128.304L427.884 119.281L427.36 123.876C403.007 113.494 397.817 87.6078 397.817 79.6487H410.438C410.438 79.6487 410.438 84.4937 410.438 86.282C410.438 88.9787 414.751 89.081 414.751 86.282C414.751 84.1868 414.751 79.9842 414.751 79.9842H418.722C419.978 86.8099 428.653 89.7112 432.936 84.8129C434.371 83.1679 435.315 80.6431 435.315 77.0952C435.315 73.2364 434.234 70.5233 432.629 68.8087C428.27 64.1683 420.041 66.8772 418.905 74.2021H414.751C414.751 74.2021 414.751 70.5397 414.751 68.2522C414.751 65.0808 410.438 65.4123 410.438 68.2522C410.443 70.2164 410.438 74.0343 410.438 74.0343H397.817C400.233 53.9339 412.222 41.6699 428.408 32.8678V37.6269L436.862 28.4401L423.388 24.8636ZM71.3112 26.4022C40.9827 26.4022 16.3681 50.6398 16.3681 80.4998C16.3681 110.36 40.9827 134.585 71.3112 134.585C101.635 134.585 126.254 110.36 126.254 80.4998C126.254 50.6398 101.635 26.4022 71.3112 26.4022ZM126.886 29.1685C128.496 30.9158 130.38 32.4135 130.55 36.3829C131.768 65.2649 132.999 93.6846 128.354 123.95C127.976 126.425 125.701 128.652 123.705 129.004H144.964C143.271 120.103 143.907 111.203 145.458 102.303C147.401 111.203 149.867 120.103 153.755 129.004H167.445C163.656 88.0702 166.33 33.3302 168.913 29.1685H150.586C152.158 41.2525 150.416 45.3282 149.6 51.5359C147.729 45.3773 146.141 41.1052 145.937 29.1685H126.886ZM170.131 29.1685C174.984 32.8759 175.013 51.5482 175.013 77.2753C175.013 102.225 176.436 126.02 167.678 129.004H211.663V110.912C204.336 120.729 186.125 116.535 186.125 104.463C186.125 91.9864 186.25 79.6814 186.25 79.6814C195.848 77.3162 201.242 84.3546 203.105 87.8656L202.859 66.4598C198.884 74.0179 189.922 75.7366 186 75.5852C186 75.5852 186.158 55.8531 186.25 51.7774C186.595 36.0269 210.058 35.9041 211.912 48.8883V29.1685H170.131ZM224.613 29.1685C225.694 29.6391 226.621 32.7204 226.996 36.1578C227.973 45.2054 228.027 60.5713 228.027 78.9612C228.027 96.6309 226.863 113.122 225.64 122.272C225.103 126.286 223.515 127.641 222.172 129.004H244.898C239.338 127.473 239.958 104.606 240.137 101.222C248.516 101.222 263.242 97.6212 263.242 86.7689C263.242 73.756 263.458 63.5381 263.458 48.8883C263.458 37.7251 257.748 29.1685 246.508 29.1685C236.132 29.1685 224.613 29.1685 224.613 29.1685ZM300.045 29.1685C304.894 32.8759 304.927 51.5482 304.927 77.2753C304.927 102.225 306.362 126.02 297.604 129.004H341.577V110.912C334.245 120.729 316.035 116.535 316.035 104.463V79.6814C324.996 79.6814 331.168 85.0748 333.031 88.5858V66.4598C329.055 74.0179 323.998 75.5852 316.035 75.5852V51.7774C316.035 36.0228 339.967 35.9041 341.822 48.8883V29.1685H300.045ZM364.411 29.414C354.327 29.5572 344.263 35.9287 344.263 49.7068V105.163C344.263 141.079 384.697 132.163 384.697 109.071V87.9843H367.239C369.506 92.0764 369.664 100.727 369.664 104.312C369.664 111.71 358.602 113.523 358.602 102.773V54.47C358.431 43.1676 369.493 45.1768 369.493 49.3589C369.493 53.4429 371.123 63.5053 367.597 66.3821H384.697V46.4658C384.614 35.3394 374.496 29.2667 364.411 29.414ZM240.137 39.6688C242.686 39.6688 251.498 40.9333 251.498 47.6689C251.498 58.4557 251.498 67.9535 251.498 79.6487C251.498 91.0043 242.719 90.194 240.137 90.194V39.6688ZM426.507 72.8476C428.312 72.8476 429.767 74.6809 429.767 76.9274C429.767 79.1699 428.312 80.9868 426.507 80.9868C424.707 80.9868 423.234 79.1699 423.234 76.9274C423.234 74.6809 424.707 72.8476 426.507 72.8476Z" fill="url(#paint1_linear_15_7)" stroke="black" stroke-width="2" stroke-linecap="round" stroke-linejoin="round"/>
<path d="M283.606 28.2028C280.013 28.2028 276.936 30.4821 275.634 33.7107L266.44 36.1333L275.031 38.1998C275.401 41.4284 277.443 44.1251 280.238 45.3487V47.6484C271.609 49.2566 265.096 56.6429 265.096 65.4941C265.096 71.0716 267.683 76.064 271.754 79.399L268.045 84.2809L271.23 84.5878L268.17 89.392H274.058L270.224 102.659L275.742 102.63L276.948 122.636C266.876 122.407 259.283 136.967 283.652 124.187C293.433 133.881 302.378 129.568 289.769 122.984L291.054 102.569L295.874 102.54L293.125 89.392H298.298L295.242 84.5715L298.298 84.2809L295.038 79.9924C299.554 76.6737 302.47 71.4113 302.47 65.4941C302.47 56.647 295.949 49.2771 287.328 47.6607V45.1686C289.877 43.9001 291.736 41.3916 292.152 38.3962L301.376 35.7813L291.624 33.8171C290.347 30.5312 287.237 28.2028 283.606 28.2028ZM290.127 59.8634C292.501 61.713 294.036 64.5652 294.036 67.7734C294.036 70.9857 292.501 73.8338 290.127 75.6875V59.8634ZM276.948 60.2603V75.2906C274.848 73.4409 273.518 70.7647 273.518 67.7734C273.518 64.7861 274.848 62.1099 276.948 60.2603Z" fill="#E30C0C" stroke="black" stroke-width="2" stroke-linejoin="round"/>
<path fill-rule="evenodd" clip-rule="evenodd" d="M84.4148 119.895L90.1162 128.398C76.1185 146.702 62.3037 143.555 49.6908 127.891L55.3922 118.192L84.4148 119.895Z" fill="white" stroke="black" stroke-width="2"/>
<path fill-rule="evenodd" clip-rule="evenodd" d="M87.8706 125.456C75.5654 132.38 61.4803 130.542 51.5912 123.86L87.8706 125.456Z" fill="white"/>
<path d="M87.8706 125.456C75.5654 132.38 61.4803 130.542 51.5912 123.86" stroke="black" stroke-width="2"/>
<path fill-rule="evenodd" clip-rule="evenodd" d="M66.9655 122.448L65.2397 129.421L66.9655 122.448Z" fill="white"/>
<path d="M66.9655 122.448L65.2397 129.421" stroke="black" stroke-width="2"/>
<path fill-rule="evenodd" clip-rule="evenodd" d="M75.5196 129.462L74.0517 122.914L75.5196 129.462Z" fill="white"/>
<path d="M75.5196 129.462L74.0517 122.914" stroke="black" stroke-width="2"/>
<path fill-rule="evenodd" clip-rule="evenodd" d="M63.3392 122.276C53.6872 129.126 43.8771 136.5 32.4119 149.153L33.1064 157.149L31.0313 154.088L29.8211 155.619L28.7856 151.363L25.8497 152.046V148.474L21.1838 148.134L21.8741 146.432H18.9381L27.9207 144.901C36.034 135.322 45.0373 127.207 54.5272 119.895L63.3392 122.276Z" fill="#C04D00" stroke="black" stroke-width="2"/>
<path fill-rule="evenodd" clip-rule="evenodd" d="M41.5691 131.291L43.299 137.585L41.5691 131.291Z" fill="#803300"/>
<path d="M41.5691 131.291L43.299 137.585" stroke="black" stroke-width="2"/>
<path fill-rule="evenodd" clip-rule="evenodd" d="M49.2167 124.703L51.0257 131.59L49.2167 124.703Z" fill="#803300"/>
<path d="M49.2167 124.703L51.0257 131.59" stroke="black" stroke-width="2"/>
<path fill-rule="evenodd" clip-rule="evenodd" d="M58.6733 125.169L56.9433 120.574L58.6733 125.169Z" fill="#803300"/>
<path d="M58.6733 125.169L56.9433 120.574" stroke="black" stroke-width="2"/>
<path fill-rule="evenodd" clip-rule="evenodd" d="M36.9073 143.878L34.487 138.268L36.9073 143.878Z" fill="#803300"/>
<path d="M36.9073 143.878L34.487 138.268" stroke="black" stroke-width="2"/>
<path fill-rule="evenodd" clip-rule="evenodd" d="M32.5866 149.325C31.7216 148.474 28.0953 144.729 28.0953 144.729L32.5866 149.325Z" fill="#803300"/>
<path d="M32.5866 149.325C31.7216 148.474 28.0953 144.729 28.0953 144.729" stroke="black" stroke-width="2"/>
<path fill-rule="evenodd" clip-rule="evenodd" d="M76.9835 121.597C111.537 158.851 126.533 151.977 142.29 142.52L129.677 142.008C110.801 148.813 94.4578 127.796 85.2756 119.895L76.9835 121.597Z" fill="#C04D00" stroke="black" stroke-width="2"/>
<path fill-rule="evenodd" clip-rule="evenodd" d="M81.4789 126.188C88.5609 123.127 88.9061 123.127 88.9061 123.127L81.4789 126.188Z" fill="#9D3F00"/>
<path d="M81.4789 126.188C88.5609 123.127 88.9061 123.127 88.9061 123.127" stroke="black" stroke-width="2"/>
<path fill-rule="evenodd" clip-rule="evenodd" d="M95.2978 129.421L87.6959 132.314L95.2978 129.421Z" fill="#9D3F00"/>
<path d="M95.2978 129.421L87.6959 132.314" stroke="black" stroke-width="2"/>
<path fill-rule="evenodd" clip-rule="evenodd" d="M101.344 134.524L94.9526 138.608L101.344 134.524Z" fill="#9D3F00"/>
<path d="M101.344 134.524L94.9526 138.608" stroke="black" stroke-width="2"/>
<path fill-rule="evenodd" clip-rule="evenodd" d="M108.081 139.799L102.725 143.371L108.081 139.799Z" fill="#9D3F00"/>
<path d="M108.081 139.799L102.725 143.371" stroke="black" stroke-width="2"/>
<path fill-rule="evenodd" clip-rule="evenodd" d="M115.683 142.688L110.847 147.623L115.683 142.688Z" fill="#9D3F00"/>
<path d="M115.683 142.688L110.847 147.623" stroke="black" stroke-width="2"/>
<path fill-rule="evenodd" clip-rule="evenodd" d="M122.915 143.563L119.854 149.812L122.915 143.563Z" fill="#9D3F00"/>
<path d="M122.915 143.563L119.854 149.812" stroke="black" stroke-width="2"/>
<path fill-rule="evenodd" clip-rule="evenodd" d="M130.022 147.79L129.502 142.52L130.022 147.79Z" fill="#9D3F00"/>
<path d="M130.022 147.79L129.502 142.52" stroke="black" stroke-width="2"/>
<path fill-rule="evenodd" clip-rule="evenodd" d="M231.948 135.203C234.269 133.071 252.18 117.472 270.128 137.924C275.522 144.071 284.43 143.792 289.653 141.669H303.297C290.613 149.083 279.477 155.942 260.626 139.287C250.034 129.924 245.11 135.645 245.11 135.645L231.948 135.203Z" fill="#C04D00" stroke="black" stroke-width="2"/>
<path fill-rule="evenodd" clip-rule="evenodd" d="M302.091 135.301C302.091 135.301 304.894 134.888 318.272 135.301C321.354 133.452 325.362 132.613 335.085 139.459C343.169 145.147 355.866 157.967 372.712 157.742C383.745 157.599 398.441 151.068 409.432 140.22C414.181 135.535 424.831 117.591 426.016 105.985L420.777 99.4831C419.209 120.746 394.378 154.862 368.429 150.172C356.614 148.04 336.445 131.397 329.384 129.081L316.775 128.909C311.552 129.073 306.075 133.071 302.091 135.301Z" fill="#C04D00" stroke="black" stroke-width="2"/>
<path d="M243.351 135.887C243.351 135.657 243.351 135.657 243.351 135.887Z" stroke="black" stroke-width="2"/>
<path fill-rule="evenodd" clip-rule="evenodd" d="M243.006 129.249L243.351 135.203L243.006 129.249Z" fill="#9D3F00"/>
<path d="M243.006 129.249L243.351 135.203" stroke="black" stroke-width="2"/>
<path fill-rule="evenodd" clip-rule="evenodd" d="M248.878 134.012L249.918 127.039L248.878 134.012Z" fill="#9D3F00"/>
<path d="M248.878 134.012L249.918 127.039" stroke="black" stroke-width="2"/>
<path d="M259.765 129.76C259.765 129.703 259.765 129.646 259.765 129.76Z" stroke="black" stroke-width="2"/>
<path fill-rule="evenodd" clip-rule="evenodd" d="M254.579 135.375L259.42 129.932L254.579 135.375Z" fill="#9D3F00"/>
<path d="M254.579 135.375L259.42 129.932" stroke="black" stroke-width="2"/>
<path fill-rule="evenodd" clip-rule="evenodd" d="M260.801 139.459L267.367 134.863L260.801 139.459Z" fill="#9D3F00"/>
<path d="M260.801 139.459L267.367 134.863" stroke="black" stroke-width="2"/>
<path fill-rule="evenodd" clip-rule="evenodd" d="M273.929 140.138L268.573 144.39L273.929 140.138Z" fill="#9D3F00"/>
<path d="M273.929 140.138L268.573 144.39" stroke="black" stroke-width="2"/>
<path fill-rule="evenodd" clip-rule="evenodd" d="M277.56 148.981L281.531 142.688L277.56 148.981Z" fill="#9D3F00"/>
<path d="M277.56 148.981L281.531 142.688" stroke="black" stroke-width="2"/>
<path fill-rule="evenodd" clip-rule="evenodd" d="M287.407 142.348L287.578 149.493L287.407 142.348Z" fill="#9D3F00"/>
<path d="M287.407 142.348L287.578 149.493" stroke="black" stroke-width="2"/>
<path fill-rule="evenodd" clip-rule="evenodd" d="M294.49 146.261C294.139 145.915 294.377 146.154 294.49 146.261V146.261Z" fill="#9D3F00" stroke="black" stroke-width="2"/>
<path fill-rule="evenodd" clip-rule="evenodd" d="M293.969 141.497L294.315 145.92L293.969 141.497Z" fill="#9D3F00"/>
<path d="M293.969 141.497L294.315 145.92" stroke="black" stroke-width="2"/>
<path d="M314.529 129.589C314.733 129.54 314.7 132.011 314.7 132.654C314.7 133.558 314.7 134.466 314.7 135.375" stroke="black" stroke-width="2" stroke-linejoin="round"/>
<path d="M321.312 128.57L319.586 134.184" stroke="black" stroke-width="2" stroke-linejoin="round"/>
<path d="M329.467 129.679L325.604 134.307" stroke="black" stroke-width="2" stroke-linejoin="round"/>
<path d="M336.986 133.333L331.804 136.905" stroke="black" stroke-width="2" stroke-linejoin="round"/>
<path d="M343.032 136.905L338.025 141.329" stroke="black" stroke-width="2" stroke-linejoin="round"/>
<path d="M349.769 141.669L343.897 145.581" stroke="black" stroke-width="2" stroke-linejoin="round"/>
<path d="M351.225 150.614L356.498 145.843" stroke="black" stroke-width="2" stroke-linejoin="round"/>
<path d="M363.937 148.474L359.271 154.935" stroke="black" stroke-width="2" stroke-linejoin="round"/>
<path d="M371.366 150.855C371.311 150.866 371.251 150.855 371.366 150.855Z" stroke="black" stroke-width="2" stroke-linejoin="round"/>
<path d="M367.564 156.809L371.884 150.683" stroke="black" stroke-width="2" stroke-linejoin="round"/>
<path d="M377.413 156.978C377.413 156.866 377.355 156.994 377.413 156.978Z" stroke="black" stroke-width="2" stroke-linejoin="round"/>
<path d="M380.002 149.325L377.756 156.977" stroke="black" stroke-width="2" stroke-linejoin="round"/>
<path d="M389.334 146.432L388.814 153.744" stroke="black" stroke-width="2" stroke-linejoin="round"/>
<path d="M397.281 140.989L399.626 147.749" stroke="black" stroke-width="2" stroke-linejoin="round"/>
<path d="M404.679 134.835L408.06 140.776" stroke="black" stroke-width="2" stroke-linejoin="round"/>
<path d="M414.381 132.821L410.409 126.7" stroke="black" stroke-width="2" stroke-linejoin="round"/>
<path d="M419.221 123.467L415.075 118.704" stroke="black" stroke-width="2" stroke-linejoin="round"/>
<path d="M419.047 111.047L423.654 114.251" stroke="black" stroke-width="2" stroke-linejoin="round"/>
<path fill-rule="evenodd" clip-rule="evenodd" d="M425.688 84.1255C429.838 90.2227 431.934 93.0462 440.837 101.087C439.236 100.776 437.893 100.293 436.708 99.7123C435.519 99.1271 434.487 97.6007 433.506 96.8764C434.862 99.2417 435.818 101.607 436.192 103.972C434.321 102.249 432.766 100.838 430.574 98.7997C432.134 102.446 431.639 103.555 432.042 105.777C427.243 101.312 422.922 96.6882 420.07 91.5854L425.688 84.1255Z" fill="#C04D00" stroke="black" stroke-width="2" stroke-linejoin="round"/>
<path fill-rule="evenodd" clip-rule="evenodd" d="M431.897 91.483L422.045 92.1664L431.897 91.483Z" fill="#9D3F00" fill-opacity="0.996078"/>
<path d="M431.897 91.483L422.045 92.1664" stroke="black" stroke-width="2"/>
<path fill-rule="evenodd" clip-rule="evenodd" d="M436.064 96.4427L426.673 99.4749L436.064 96.4427Z" fill="#9D3F00" fill-opacity="0.996078"/>
<path d="M436.064 96.4427L426.673 99.4749" stroke="black" stroke-width="2"/>
<path fill-rule="evenodd" clip-rule="evenodd" d="M424.627 72.8312C427.21 71.5791 430.795 76.555 428.17 79.5668C425.243 82.9305 421.18 93.5823 427.559 103.743C429.651 107.074 424.839 110.241 420.598 104.946C413.965 96.6677 417.466 76.3013 424.627 72.8312Z" fill="#C04D00" stroke="black" stroke-width="2"/>
<path fill-rule="evenodd" clip-rule="evenodd" d="M421.33 75.8389L426.582 81.3715L421.33 75.8389Z" fill="#9D3F00" fill-opacity="0.996078"/>
<path d="M421.33 75.8389L426.582 81.3715" stroke="black" stroke-width="2"/>
<path fill-rule="evenodd" clip-rule="evenodd" d="M424.141 88.3485L418.643 85.0993L424.141 88.3485Z" fill="#9D3F00" fill-opacity="0.996078"/>
<path d="M424.141 88.3485L418.643 85.0993" stroke="black" stroke-width="2"/>
<path fill-rule="evenodd" clip-rule="evenodd" d="M424.482 96.8642C423.958 96.7496 417.812 95.3501 417.812 95.3501L424.482 96.8642Z" fill="#9D3F00" fill-opacity="0.996078"/>
<path d="M424.482 96.8642C423.958 96.7496 417.812 95.3501 417.812 95.3501" stroke="black" stroke-width="2"/>
<path fill-rule="evenodd" clip-rule="evenodd" d="M426.461 102.421L419.255 102.061L426.461 102.421Z" fill="#9D3F00" fill-opacity="0.996078"/>
<path d="M426.461 102.421L419.255 102.061" stroke="black" stroke-width="2"/>
<path d="M70.7705 43.188C52.4604 43.188 37.2691 56.0127 34.4621 72.778H107.079C104.272 56.0127 89.0807 43.188 70.7705 43.188Z" fill="#FFE01F" stroke="black" stroke-width="2" stroke-linejoin="round"/>
<path fill-rule="evenodd" clip-rule="evenodd" d="M37.0778 64.4383C59.4509 60.7145 83.4001 60.735 104.655 65.3386C105.877 67.1841 106.256 69.443 106.871 71.5832L35.0068 71.2435C35.2314 68.9765 35.5017 66.7054 37.0778 64.4383Z" fill="#EB0000" stroke="black" stroke-width="2"/>
<path fill-rule="evenodd" clip-rule="evenodd" d="M11.5941 77.8768C62.2621 88.2503 106.405 86.1224 128.641 76.8579C94.3787 61.6025 34.4995 64.115 11.5941 77.8768Z" fill="#FFE01F" stroke="black" stroke-width="2"/>
<path fill-rule="evenodd" clip-rule="evenodd" d="M58.3281 113.601L54.0074 119.723C64.7739 123.017 76.0603 123.426 86.831 119.894L83.03 112.922L58.3281 113.601Z" fill="white" stroke="black" stroke-width="2"/>
<path fill-rule="evenodd" clip-rule="evenodd" d="M67.6558 122.448L68.0009 114.792L67.6558 122.448Z" fill="white"/>
<path d="M67.6558 122.448L68.0009 114.792" stroke="black" stroke-width="2"/>
<path fill-rule="evenodd" clip-rule="evenodd" d="M73.5318 122.448L73.7023 115.131L73.5318 122.448Z" fill="white"/>
<path d="M73.5318 122.448L73.7023 115.131" stroke="black" stroke-width="2"/>
<path fill-rule="evenodd" clip-rule="evenodd" d="M79.5784 115.471L81.1295 121.765L79.5784 115.471Z" fill="white"/>
<path d="M79.5784 115.471L81.1295 121.765" stroke="black" stroke-width="2"/>
<path fill-rule="evenodd" clip-rule="evenodd" d="M60.0539 121.425L62.2995 114.112L60.0539 121.425Z" fill="white"/>
<path d="M60.0539 121.425L62.2995 114.112" stroke="black" stroke-width="2"/>
<path fill-rule="evenodd" clip-rule="evenodd" d="M34.1419 79.4072C35.9093 73.9975 43.9145 72.2092 70.7664 71.9637C97.6141 71.7223 106.705 73.2118 107.736 78.5561C109.208 86.1878 102.338 116.834 70.7664 116.834C39.0199 116.834 31.9129 86.241 34.1419 79.4072Z" fill="white" stroke="black" stroke-width="2"/>
<path d="M65.9299 91.655C65.9299 97.9528 60.7483 103.056 54.3525 103.056C47.9608 103.056 42.7792 97.9528 42.7792 91.655C42.7792 85.3613 47.9608 80.2585 54.3525 80.2585C60.7483 80.2585 65.9299 85.3613 65.9299 91.655Z" fill="black" fill-opacity="0.992157"/>
<path d="M98.7535 91.655C98.7535 97.9528 93.5719 103.056 87.176 103.056C80.7843 103.056 75.6028 97.9528 75.6028 91.655C75.6028 85.3613 80.7843 80.2585 87.176 80.2585C93.5719 80.2585 98.7535 85.3613 98.7535 91.655Z" fill="black" fill-opacity="0.992157"/>
<path d="M75.4323 105.945C75.4323 108.482 73.3405 110.54 70.7663 110.54C68.188 110.54 66.1004 108.482 66.1004 105.945C66.1004 103.408 68.188 101.353 70.7663 101.353C73.3405 101.353 75.4323 103.408 75.4323 105.945Z" fill="black" fill-opacity="0.992157"/>
</g>
<defs>
<linearGradient id="paint0_linear_15_7" x1="194.115" y1="31.3664" x2="194.115" y2="151.144" gradientUnits="userSpaceOnUse">
<stop stop-color="#4ABFFF"/>
<stop offset="1" stop-color="#0000CB"/>
</linearGradient>
<linearGradient id="paint1_linear_15_7" x1="190.856" y1="32.6733" x2="190.856" y2="153.632" gradientUnits="userSpaceOnUse">
<stop stop-color="#4ABFFF"/>
<stop offset="1" stop-color="#0000CB"/>
</linearGradient>
<clipPath id="clip0_15_7">
<rect width="445" height="160.28" fill="white"/>
</clipPath>
</defs>
</svg>
