<svg width="26" height="29" viewBox="0 0 26 29" fill="none" xmlns="http://www.w3.org/2000/svg">
<path d="M13.0625 18.1458V21.0625M5.95312 11.6253C6.62342 11.5833 7.44978 11.5833 8.5125 11.5833H17.6125C18.6752 11.5833 19.5016 11.5833 20.1719 11.6253M5.95312 11.6253C5.11661 11.6777 4.52313 11.7955 4.01657 12.0602C3.21394 12.4796 2.56138 13.1489 2.15242 13.9721C1.6875 14.908 1.6875 16.133 1.6875 18.5833V20.625C1.6875 23.0753 1.6875 24.3003 2.15242 25.2362C2.56138 26.0595 3.21394 26.7287 4.01657 27.1481C4.92903 27.625 6.12352 27.625 8.5125 27.625H17.6125C20.0015 27.625 21.1959 27.625 22.1085 27.1481C22.9111 26.7287 23.5636 26.0595 23.9725 25.2362C24.4375 24.3003 24.4375 23.0753 24.4375 20.625V18.5833C24.4375 16.133 24.4375 14.908 23.9725 13.9721C23.5636 13.1489 22.9111 12.4796 22.1085 12.0602C21.6019 11.7955 21.0084 11.6777 20.1719 11.6253M5.95312 11.6253V8.66667C5.95312 4.6396 9.1361 1.375 13.0625 1.375C16.9889 1.375 20.1719 4.6396 20.1719 8.66667V11.6253" stroke="black" stroke-width="2" stroke-linecap="round" stroke-linejoin="round"/>
</svg>
