<svg width="133" height="129" viewBox="0 0 133 129" fill="none" xmlns="http://www.w3.org/2000/svg">
<g filter="url(#filter0_d_168_58)">
<circle cx="66.5" cy="66.5" r="57.5" stroke="#111514" stroke-width="10"/>
</g>
<g filter="url(#filter1_d_168_58)">
<mask id="path-2-outside-1_168_58" maskUnits="userSpaceOnUse" x="42" y="28" width="49" height="71" fill="black">
<rect fill="white" x="42" y="28" width="49" height="71"/>
<path d="M45.8788 98V90.608L68.4388 66.416C71.5748 63.024 73.8148 59.952 75.1588 57.2C76.5668 54.448 77.2708 51.664 77.2708 48.848C77.2708 41.552 72.9828 37.904 64.4068 37.904C57.8788 37.904 52.0228 40.368 46.8388 45.296L43.2868 37.712C45.8468 35.216 49.1108 33.232 53.0788 31.76C57.0468 30.224 61.1748 29.456 65.4628 29.456C72.4388 29.456 77.7828 31.056 81.4948 34.256C85.2708 37.456 87.1588 42.032 87.1588 47.984C87.1588 52.016 86.1668 55.952 84.1828 59.792C82.2628 63.632 79.2228 67.728 75.0628 72.08L58.3588 89.648H89.8468V98H45.8788Z"/>
</mask>
<path d="M45.8788 98V90.608L68.4388 66.416C71.5748 63.024 73.8148 59.952 75.1588 57.2C76.5668 54.448 77.2708 51.664 77.2708 48.848C77.2708 41.552 72.9828 37.904 64.4068 37.904C57.8788 37.904 52.0228 40.368 46.8388 45.296L43.2868 37.712C45.8468 35.216 49.1108 33.232 53.0788 31.76C57.0468 30.224 61.1748 29.456 65.4628 29.456C72.4388 29.456 77.7828 31.056 81.4948 34.256C85.2708 37.456 87.1588 42.032 87.1588 47.984C87.1588 52.016 86.1668 55.952 84.1828 59.792C82.2628 63.632 79.2228 67.728 75.0628 72.08L58.3588 89.648H89.8468V98H45.8788Z" fill="#87352E"/>
<path d="M45.8788 98H44.8788V99H45.8788V98ZM45.8788 90.608L45.1474 89.926L44.8788 90.2141V90.608H45.8788ZM68.4388 66.416L69.1701 67.098L69.173 67.0949L68.4388 66.416ZM75.1588 57.2L74.2685 56.7445L74.2643 56.7528L74.2602 56.7612L75.1588 57.2ZM46.8388 45.296L45.9332 45.7201L46.5218 46.977L47.5277 46.0208L46.8388 45.296ZM43.2868 37.712L42.5886 36.996L42.0796 37.4923L42.3812 38.1361L43.2868 37.712ZM53.0788 31.76L53.4266 32.6977L53.4397 32.6926L53.0788 31.76ZM81.4948 34.256L80.8418 35.0134L80.8482 35.0189L81.4948 34.256ZM84.1828 59.792L83.2942 59.3329L83.2883 59.3448L84.1828 59.792ZM75.0628 72.08L74.3399 71.389L74.3381 71.3909L75.0628 72.08ZM58.3588 89.648L57.634 88.9589L56.0281 90.648H58.3588V89.648ZM89.8468 89.648H90.8468V88.648H89.8468V89.648ZM89.8468 98V99H90.8468V98H89.8468ZM46.8788 98V90.608H44.8788V98H46.8788ZM46.6101 91.29L69.1701 67.098L67.7074 65.734L45.1474 89.926L46.6101 91.29ZM69.173 67.0949C72.3452 63.6637 74.6547 60.5108 76.0573 57.6388L74.2602 56.7612C72.9748 59.3932 70.8043 62.3843 67.7045 65.7371L69.173 67.0949ZM76.049 57.6555C77.522 54.7765 78.2708 51.8374 78.2708 48.848H76.2708C76.2708 51.4906 75.6115 54.1195 74.2685 56.7445L76.049 57.6555ZM78.2708 48.848C78.2708 44.9998 77.1323 41.9453 74.7027 39.8783C72.3041 37.8377 68.8129 36.904 64.4068 36.904V38.904C68.5766 38.904 71.5174 39.7943 73.4068 41.4017C75.2652 42.9827 76.2708 45.4002 76.2708 48.848H78.2708ZM64.4068 36.904C57.5967 36.904 51.5002 39.485 46.1498 44.5712L47.5277 46.0208C52.5453 41.251 58.1608 38.904 64.4068 38.904V36.904ZM47.7443 44.8719L44.1923 37.2879L42.3812 38.1361L45.9332 45.7201L47.7443 44.8719ZM43.9849 38.428C46.4282 36.0457 49.5658 34.1298 53.4266 32.6976L52.7309 30.8224C48.6557 32.3342 45.2653 34.3862 42.5886 36.996L43.9849 38.428ZM53.4397 32.6926C57.2917 31.2015 61.2972 30.456 65.4628 30.456V28.456C61.0523 28.456 56.8018 29.2465 52.7178 30.8274L53.4397 32.6926ZM65.4628 30.456C72.2992 30.456 77.375 32.0248 80.8418 35.0134L82.1477 33.4986C78.1905 30.0872 72.5783 28.456 65.4628 28.456V30.456ZM80.8482 35.0189C84.3545 37.9903 86.1588 42.2605 86.1588 47.984H88.1588C88.1588 41.8035 86.187 36.9217 82.1413 33.4931L80.8482 35.0189ZM86.1588 47.984C86.1588 51.8449 85.2104 55.6244 83.2943 59.333L85.0712 60.251C87.1231 56.2796 88.1588 52.1871 88.1588 47.984H86.1588ZM83.2883 59.3448C81.427 63.0675 78.4563 67.0826 74.3399 71.389L75.7856 72.771C79.9892 68.3734 83.0986 64.1965 85.0772 60.2392L83.2883 59.3448ZM74.3381 71.3909L57.634 88.9589L59.0835 90.3371L75.7875 72.7691L74.3381 71.3909ZM58.3588 90.648H89.8468V88.648H58.3588V90.648ZM88.8468 89.648V98H90.8468V89.648H88.8468ZM89.8468 97H45.8788V99H89.8468V97Z" fill="black" mask="url(#path-2-outside-1_168_58)"/>
</g>
<defs>
<filter id="filter0_d_168_58" x="0" y="0" width="133" height="133" filterUnits="userSpaceOnUse" color-interpolation-filters="sRGB">
<feFlood flood-opacity="0" result="BackgroundImageFix"/>
<feColorMatrix in="SourceAlpha" type="matrix" values="0 0 0 0 0 0 0 0 0 0 0 0 0 0 0 0 0 0 127 0" result="hardAlpha"/>
<feOffset/>
<feGaussianBlur stdDeviation="2"/>
<feColorMatrix type="matrix" values="0 0 0 0 0 0 0 0 0 0 0 0 0 0 0 0 0 0 1 0"/>
<feBlend mode="normal" in2="BackgroundImageFix" result="effect1_dropShadow_168_58"/>
<feBlend mode="normal" in="SourceGraphic" in2="effect1_dropShadow_168_58" result="shape"/>
</filter>
<filter id="filter1_d_168_58" x="39.2869" y="29.4561" width="54.5598" height="76.5439" filterUnits="userSpaceOnUse" color-interpolation-filters="sRGB">
<feFlood flood-opacity="0" result="BackgroundImageFix"/>
<feColorMatrix in="SourceAlpha" type="matrix" values="0 0 0 0 0 0 0 0 0 0 0 0 0 0 0 0 0 0 127 0" result="hardAlpha"/>
<feOffset dy="4"/>
<feGaussianBlur stdDeviation="2"/>
<feComposite in2="hardAlpha" operator="out"/>
<feColorMatrix type="matrix" values="0 0 0 0 0 0 0 0 0 0 0 0 0 0 0 0 0 0 0.25 0"/>
<feBlend mode="normal" in2="BackgroundImageFix" result="effect1_dropShadow_168_58"/>
<feBlend mode="normal" in="SourceGraphic" in2="effect1_dropShadow_168_58" result="shape"/>
</filter>
</defs>
</svg>
