<svg width="133" height="129" viewBox="0 0 133 129" fill="none" xmlns="http://www.w3.org/2000/svg">
<g filter="url(#filter0_d_316_7)">
<circle cx="66.5" cy="66.5" r="57.5" stroke="#111514" stroke-width="10"/>
</g>
<g filter="url(#filter1_d_316_7)">
<mask id="path-2-outside-1_316_7" maskUnits="userSpaceOnUse" x="41" y="28" width="49" height="72" fill="black">
<rect fill="white" x="41" y="28" width="49" height="72"/>
<path d="M65.4628 98.864C60.9188 98.864 56.5988 98.192 52.5028 96.848C48.4068 95.44 44.9828 93.488 42.2308 90.992L45.6868 83.312C48.6948 85.744 51.7988 87.536 54.9988 88.688C58.1988 89.84 61.5908 90.416 65.1748 90.416C69.7828 90.416 73.2708 89.424 75.6388 87.44C78.0708 85.456 79.2868 82.608 79.2868 78.896C79.2868 75.184 78.0708 72.432 75.6388 70.64C73.2708 68.848 69.8148 67.952 65.2708 67.952H54.8068V59.6H64.3108C68.3428 59.6 71.5108 58.576 73.8148 56.528C76.1828 54.48 77.3668 51.664 77.3668 48.08C77.3668 44.816 76.2788 42.32 74.1028 40.592C71.9268 38.8 68.8228 37.904 64.7908 37.904C57.9428 37.904 51.9588 40.368 46.8388 45.296L43.3828 37.712C46.0068 35.088 49.2708 33.072 53.1748 31.664C57.1428 30.192 61.2708 29.456 65.5588 29.456C72.3428 29.456 77.6228 31.024 81.3988 34.16C85.1748 37.232 87.0627 41.52 87.0627 47.024C87.0627 50.736 86.1028 54 84.1828 56.816C82.3268 59.632 79.7348 61.68 76.4068 62.96C80.4388 63.984 83.5428 65.968 85.7188 68.912C87.8948 71.792 88.9828 75.344 88.9828 79.568C88.9828 85.52 86.8708 90.224 82.6468 93.68C78.4868 97.136 72.7588 98.864 65.4628 98.864Z"/>
</mask>
<path d="M65.4628 98.864C60.9188 98.864 56.5988 98.192 52.5028 96.848C48.4068 95.44 44.9828 93.488 42.2308 90.992L45.6868 83.312C48.6948 85.744 51.7988 87.536 54.9988 88.688C58.1988 89.84 61.5908 90.416 65.1748 90.416C69.7828 90.416 73.2708 89.424 75.6388 87.44C78.0708 85.456 79.2868 82.608 79.2868 78.896C79.2868 75.184 78.0708 72.432 75.6388 70.64C73.2708 68.848 69.8148 67.952 65.2708 67.952H54.8068V59.6H64.3108C68.3428 59.6 71.5108 58.576 73.8148 56.528C76.1828 54.48 77.3668 51.664 77.3668 48.08C77.3668 44.816 76.2788 42.32 74.1028 40.592C71.9268 38.8 68.8228 37.904 64.7908 37.904C57.9428 37.904 51.9588 40.368 46.8388 45.296L43.3828 37.712C46.0068 35.088 49.2708 33.072 53.1748 31.664C57.1428 30.192 61.2708 29.456 65.5588 29.456C72.3428 29.456 77.6228 31.024 81.3988 34.16C85.1748 37.232 87.0627 41.52 87.0627 47.024C87.0627 50.736 86.1028 54 84.1828 56.816C82.3268 59.632 79.7348 61.68 76.4068 62.96C80.4388 63.984 83.5428 65.968 85.7188 68.912C87.8948 71.792 88.9828 75.344 88.9828 79.568C88.9828 85.52 86.8708 90.224 82.6468 93.68C78.4868 97.136 72.7588 98.864 65.4628 98.864Z" fill="#87352E"/>
<path d="M52.5028 96.848L52.1776 97.7938L52.191 97.7982L52.5028 96.848ZM42.2308 90.992L41.3188 90.5816L41.0206 91.2444L41.5589 91.7327L42.2308 90.992ZM45.6868 83.312L46.3155 82.5344L45.307 81.719L44.7748 82.9016L45.6868 83.312ZM75.6388 87.44L75.0066 86.6651L74.9965 86.6735L75.6388 87.44ZM75.6388 70.64L75.0353 71.4375L75.0456 71.4451L75.6388 70.64ZM54.8068 67.952H53.8068V68.952H54.8068V67.952ZM54.8068 59.6V58.6H53.8068V59.6H54.8068ZM73.8148 56.528L73.1605 55.7716L73.1504 55.7806L73.8148 56.528ZM74.1028 40.592L73.467 41.3639L73.4739 41.3696L73.4809 41.3751L74.1028 40.592ZM46.8388 45.296L45.9288 45.7107L46.5145 46.996L47.5322 46.0165L46.8388 45.296ZM43.3828 37.712L42.6756 37.0049L42.1851 37.4954L42.4728 38.1267L43.3828 37.712ZM53.1748 31.664L53.514 32.6047L53.5226 32.6016L53.1748 31.664ZM81.3988 34.16L80.7598 34.9293L80.7677 34.9357L81.3988 34.16ZM84.1828 56.816L83.3565 56.2527L83.3521 56.2591L83.3478 56.2657L84.1828 56.816ZM76.4068 62.96L76.0478 62.0267L73.1133 63.1553L76.1606 63.9292L76.4068 62.96ZM85.7188 68.912L84.9145 69.5064L84.9209 69.5148L85.7188 68.912ZM82.6468 93.68L82.0135 92.906L82.0077 92.9108L82.6468 93.68ZM65.4628 97.864C61.0189 97.864 56.8046 97.2071 52.8145 95.8978L52.191 97.7982C56.3929 99.1769 60.8186 99.864 65.4628 99.864V97.864ZM52.8278 95.9023C48.8391 94.5312 45.5388 92.6423 42.9026 90.2513L41.5589 91.7327C44.4267 94.3337 47.9744 96.3488 52.1777 97.7937L52.8278 95.9023ZM43.1427 91.4024L46.5987 83.7224L44.7748 82.9016L41.3188 90.5816L43.1427 91.4024ZM45.058 84.0896C48.1411 86.5824 51.3416 88.4342 54.66 89.6289L55.3375 87.7471C52.2559 86.6378 49.2484 84.9056 46.3155 82.5344L45.058 84.0896ZM54.66 89.6289C57.9744 90.8221 61.4815 91.416 65.1748 91.416V89.416C61.7 89.416 58.4231 88.8579 55.3375 87.7471L54.66 89.6289ZM65.1748 91.416C69.9061 91.416 73.6628 90.4001 76.281 88.2065L74.9965 86.6735C72.8787 88.4479 69.6594 89.416 65.1748 89.416V91.416ZM76.2709 88.2149C78.9792 86.0055 80.2868 82.8474 80.2868 78.896H78.2868C78.2868 82.3686 77.1623 84.9065 75.0066 86.6651L76.2709 88.2149ZM80.2868 78.896C80.2868 74.9476 78.9788 71.859 76.232 69.8349L75.0456 71.4451C77.1627 73.005 78.2868 75.4204 78.2868 78.896H80.2868ZM76.2422 69.8426C73.63 67.8658 69.9236 66.952 65.2708 66.952V68.952C69.7059 68.952 72.9115 69.8302 75.0353 71.4374L76.2422 69.8426ZM65.2708 66.952H54.8068V68.952H65.2708V66.952ZM55.8068 67.952V59.6H53.8068V67.952H55.8068ZM54.8068 60.6H64.3108V58.6H54.8068V60.6ZM64.3108 60.6C68.5106 60.6 71.9416 59.5309 74.4791 57.2754L73.1504 55.7806C71.0799 57.6211 68.1749 58.6 64.3108 58.6V60.6ZM74.4689 57.2844C77.0896 55.0178 78.3668 51.9076 78.3668 48.08H76.3668C76.3668 51.4204 75.2759 53.9422 73.1606 55.7716L74.4689 57.2844ZM78.3668 48.08C78.3668 44.5706 77.1826 41.7608 74.7246 39.8089L73.4809 41.3751C75.3749 42.8792 76.3668 45.0614 76.3668 48.08H78.3668ZM74.7385 39.8201C72.3202 37.8286 68.9569 36.904 64.7908 36.904V38.904C68.6886 38.904 71.5333 39.7714 73.467 41.3639L74.7385 39.8201ZM64.7908 36.904C57.6735 36.904 51.4438 39.4757 46.1453 44.5755L47.5322 46.0165C52.4737 41.2603 58.212 38.904 64.7908 38.904V36.904ZM47.7487 44.8813L44.2927 37.2973L42.4728 38.1267L45.9288 45.7107L47.7487 44.8813ZM44.0899 38.4191C46.5982 35.9108 49.7318 33.9688 53.514 32.6047L52.8355 30.7233C48.8097 32.1752 45.4153 34.2652 42.6756 37.0049L44.0899 38.4191ZM53.5226 32.6016C57.3778 31.1714 61.3879 30.456 65.5588 30.456V28.456C61.1536 28.456 56.9077 29.2126 52.8269 30.7264L53.5226 32.6016ZM65.5588 30.456C72.1979 30.456 77.2214 31.9906 80.7598 34.9293L82.0377 33.3907C78.0241 30.0574 72.4876 28.456 65.5588 28.456V30.456ZM80.7677 34.9357C84.2779 37.7915 86.0627 41.7765 86.0627 47.024H88.0627C88.0627 41.2635 86.0716 36.6725 82.0298 33.3843L80.7677 34.9357ZM86.0627 47.024C86.0627 50.5538 85.1532 53.6176 83.3565 56.2527L85.009 57.3793C87.0523 54.3824 88.0627 50.9182 88.0627 47.024H86.0627ZM83.3478 56.2657C81.6134 58.8972 79.1929 60.817 76.0478 62.0267L76.7657 63.8933C80.2766 62.543 83.0401 60.3668 85.0177 57.3663L83.3478 56.2657ZM76.1606 63.9292C80.0011 64.9046 82.8943 66.7731 84.9146 69.5064L86.5229 68.3176C84.1912 65.1629 80.8764 63.0634 76.6529 61.9908L76.1606 63.9292ZM84.9209 69.5148C86.9443 72.1929 87.9828 75.5232 87.9828 79.568H89.9828C89.9828 75.1648 88.8452 71.3911 86.5166 68.3092L84.9209 69.5148ZM87.9828 79.568C87.9828 85.251 85.9824 89.6587 82.0135 92.906L83.28 94.454C87.7591 90.7893 89.9828 85.789 89.9828 79.568H87.9828ZM82.0077 92.9108C78.0814 96.1727 72.607 97.864 65.4628 97.864V99.864C72.9106 99.864 78.8921 98.0993 83.2858 94.4492L82.0077 92.9108Z" fill="black" mask="url(#path-2-outside-1_316_7)"/>
</g>
<defs>
<filter id="filter0_d_316_7" x="0" y="0" width="133" height="133" filterUnits="userSpaceOnUse" color-interpolation-filters="sRGB">
<feFlood flood-opacity="0" result="BackgroundImageFix"/>
<feColorMatrix in="SourceAlpha" type="matrix" values="0 0 0 0 0 0 0 0 0 0 0 0 0 0 0 0 0 0 127 0" result="hardAlpha"/>
<feOffset/>
<feGaussianBlur stdDeviation="2"/>
<feColorMatrix type="matrix" values="0 0 0 0 0 0 0 0 0 0 0 0 0 0 0 0 0 0 1 0"/>
<feBlend mode="normal" in2="BackgroundImageFix" result="effect1_dropShadow_316_7"/>
<feBlend mode="normal" in="SourceGraphic" in2="effect1_dropShadow_316_7" result="shape"/>
</filter>
<filter id="filter1_d_316_7" x="38.2305" y="29.456" width="54.752" height="77.408" filterUnits="userSpaceOnUse" color-interpolation-filters="sRGB">
<feFlood flood-opacity="0" result="BackgroundImageFix"/>
<feColorMatrix in="SourceAlpha" type="matrix" values="0 0 0 0 0 0 0 0 0 0 0 0 0 0 0 0 0 0 127 0" result="hardAlpha"/>
<feOffset dy="4"/>
<feGaussianBlur stdDeviation="2"/>
<feComposite in2="hardAlpha" operator="out"/>
<feColorMatrix type="matrix" values="0 0 0 0 0 0 0 0 0 0 0 0 0 0 0 0 0 0 0.25 0"/>
<feBlend mode="normal" in2="BackgroundImageFix" result="effect1_dropShadow_316_7"/>
<feBlend mode="normal" in="SourceGraphic" in2="effect1_dropShadow_316_7" result="shape"/>
</filter>
</defs>
</svg>
